<svg xmlns="http://www.w3.org/2000/svg" xmlns:xlink="http://www.w3.org/1999/xlink" width="583.434" height="40" viewBox="0 0 583.434 40"><defs><path id="a" d="M.06.04h363.347V40H.06z"/></defs><clipPath id="b"><use xlink:href="#a" overflow="visible"/></clipPath><path clip-path="url(#b)" fill="#163051" d="M24.117 29.575v-.855c2.165-.25 2.973-1.157 2.82-4.08l-.855-18.88-9.06 23.613h-1.16L6.598 5.763l-.808 17.72c-.15 3.728.65 4.73 3.474 5.234v.855H0v-.852c2.62-.3 3.674-1.712 3.877-5.487l.905-17.626C4.936 2.284 2.724 1.88 1.208 1.58V.724H8.81l8.713 22.354L26.03.878h7.204v.906c-2.27.198-3.374 1.31-3.278 3.924l.855 18.078c.156 3.472 1.16 4.684 3.73 4.934v.855H24.117"/><path fill="#163051" d="M44.205 30.078c-6.193 0-8.558-4.33-8.558-8.56 0-5.337 4.024-10.175 9.413-10.175 2.215 0 4.13.557 5.39 1.568-.054 1.054-.605 2.468-1.162 3.17l-.348.052c-1.463-1.914-3.476-2.614-5.24-2.614-1.207 0-2.416.296-3.27 1.15-.91.908-1.407 2.423-1.407 4.485 0 4.433 1.862 8.662 6.844 8.662 1.762 0 3.624-.5 5.286-1.508l.404.856c-1.712 1.858-4.785 2.918-7.352 2.918m28.09-.505c-3.98-4.482-7.653-9.115-11.078-13.34l-1.36 1.506v1.614c0 8.658 0 8.915 3.277 9.367v.856H52.807v-.855c2.973-.25 3.276-.756 3.276-8.81V9.94c0-7.454-.15-8.105-3.276-8.358V.724h10.327v.858c-2.923.402-3.277.858-3.277 8.26v5.433l7.602-8.407c1.864-2.012 2.014-3.07 2.014-3.674 0-.908-.507-1.358-1.763-1.61V.72h9.666v.86c-2.82.102-4.428 1.764-7.452 5.087l-6.19 6.848c1.913 2.468 5.186 6.39 7.145 8.708 5.09 5.888 6.705 6.34 8.31 6.492v.855l-6.897.002"/><path fill="#163051" d="M83.87 6.515c-1.313 0-2.262-1.007-2.262-2.315 0-1.31.95-2.32 2.262-2.32s2.317 1.01 2.317 2.32c0 1.308-1.005 2.315-2.317 2.315m-4.778 23.06v-.855c3.17-.15 3.22-.15 3.22-6.547V17.74c0-5.03-.354-5.183-3.273-5.284v-.858h6.743v10.626c0 6.346.1 6.29 2.92 6.493v.855l-9.612.003zm23.91 0v-.855c2.57-.153 2.77-.202 2.77-6.196v-3.622c0-4.335-1.762-5.288-3.976-5.288-2.72 0-4.99 2.06-4.99 3.728v4.885c0 6.34.106 6.29 2.925 6.493v.855h-9.615v-.855c3.168-.153 3.224-.153 3.224-6.547V17.74c0-5.034-.358-5.183-3.276-5.284v-.858h6.743v3.227c1.865-2.37 4.28-3.48 6.603-3.48 2.865 0 5.84 1.715 5.84 7.154v4.022c0 5.992 0 6.043 3.168 6.194v.855l-9.416.004m17.365.456c-2.367 0-5.236-.605-5.94-1.765-.254-.4-.453-2.818-.453-4.132h1.054c.708 3.226 2.873 4.586 5.44 4.586 2.613 0 4.18-1.013 4.18-2.67 0-4.938-10.324-3.726-10.324-9.77 0-2.767 2.166-5.084 5.893-5.084 2.516 0 5.085.705 5.286.908.203.197.504 1.863.504 4.478h-.81c-.3-1.06-1.807-4.177-5.18-4.177-1.665 0-3.024.75-3.024 2.263 0 4.284 10.268 3.272 10.268 9.92 0 2.972-2.61 5.44-6.892 5.44m22.655-12.13h-9.263c.3-3.33 1.81-5.19 4.68-5.19 2.82 0 4.53 1.86 4.583 5.19m3.274 9.26l-.403-.856c-1.66 1.01-3.525 1.513-5.29 1.513-4.982 0-7.047-4.48-6.895-8.56h12.586c.204-4.132-1.965-8.057-7.15-8.057-5.234 0-8.76 4.18-8.76 9.97 0 4.53 2.315 8.912 8.56 8.912 2.564 0 5.64-1.062 7.35-2.924m17.012-11.173l-3.58 10.167c-2.363 6.697-3.67 11.13-10.375 13.85-.496-.458-1.455-1.97-1.713-2.82 5.09-1.16 7.61-3.373 9.22-7.503l-4.682-10.423c-2.77-6.144-2.972-6.447-5.038-6.548v-.852h8.406v.852c-1.305.152-1.71.557-1.71 1.262 0 .754.354 1.61 1.26 3.776l3.376 7.906 3.47-10.224c.605-1.763-.25-2.62-1.81-2.722v-.852h6.496v.852c-1.26.002-2.52.96-3.32 3.28"/><defs><path id="c" d="M.06.04h363.347V40H.06z"/></defs><clipPath id="d"><use xlink:href="#c" overflow="visible"/></clipPath><path clip-path="url(#d)" fill="#163051" d="M187.37 26c-1.51 1.162-4.078 1.514-6.136 1.514-5.293 0-9.47-3.728-9.47-8.717 0-3.122 1.357-5.08 3.42-5.636 2.522 4.48 7.254 9.215 12.187 12.84m11.688 3.576v-.858c-2.02-.2-5.042-1.863-8.263-4.228 1.158-1.91 1.41-4.683 1.712-6.75.253-1.757 1.56-1.708 2.416-1.81v-.8h-8.155v.8c1.918.25 3.78.504 3.78 3.476 0 1.556-.26 3.117-.964 4.18-7.145-5.59-13.74-13.346-13.74-17.223 0-1.912 1.157-2.82 3.018-2.82 2.318 0 4.533 1.564 5.59 4.585h.807l-.104-5.44h-.808c-.05.355-.396.605-.6.605-1.005 0-2.414-1.108-4.886-1.108-2.713 0-5.538 1.715-5.538 5.432 0 1.417.456 2.724 1.212 4.235-3.726 1.16-5.69 4.382-5.69 8.056 0 6.695 5.085 10.32 10.823 10.32 3.576 0 6.393-1.106 9.016-3.32 1.604 1.16 3.215 2.262 4.176 2.667h6.197z"/><defs><path id="e" d="M.06.04h363.347V40H.06z"/></defs><clipPath id="f"><use xlink:href="#e" overflow="visible"/></clipPath><path clip-path="url(#f)" fill="#163051" d="M213.345 30.28c-8.35 0-13.64-5.538-13.64-14.35 0-9.212 5.744-15.912 14.345-15.912 4.283 0 5.896 1.21 7.607 1.21.758 0 1.256-.302 1.562-.906h.806l.3 8.61h-.857c-1.41-4.983-4.284-7.502-9.264-7.502-6.447 0-10.37 4.53-10.37 12.637 0 8.408 4.024 14.046 10.772 14.046 3.778 0 7.45-1.662 9.165-3.978l.804.905c-1.567 2.57-5.795 5.24-11.235 5.24"/><path fill="#163051" d="M242.292 21.77c0 4.184-1.863 6.75-5.64 6.75-3.275 0-6.342-3.02-6.342-9.112 0-4.335 2.06-6.7 5.537-6.7 3.224-.002 6.445 3.122 6.445 9.062m3.57-1.16c0-3.473-1.407-6.395-3.976-8.002-1.51-.957-3.42-1.41-5.535-1.41-5.64 0-9.62 4.128-9.62 9.413 0 3.526 1.417 6.445 3.98 8.058 1.51.96 3.475 1.364 5.59 1.364 5.59 0 9.564-4.03 9.564-9.42m26.633 8.963v-.855c2.62-.202 2.667-.452 2.667-5.892V18.7c0-3.728-1.456-5.086-3.727-5.086-2.67 0-4.98 2.012-4.98 3.827v5.085c0 5.692-.054 5.946 2.916 6.196v.856h-8.96v-.855c2.515-.152 2.67-.45 2.67-6.392V18.7c0-3.574-1.162-5.086-3.88-5.086-2.518 0-4.88 2.012-4.88 3.874v5.24c0 5.742.25 5.742 2.917 5.992v.855h-9.515v-.855c3.023-.053 3.12-.053 3.12-5.84v-5.14c0-5.034-.35-5.183-3.273-5.284v-.858h6.75v3.227c1.405-1.915 3.826-3.48 6.292-3.48 3.02 0 4.782 1.462 5.487 3.928 1.66-2.31 3.983-3.928 6.85-3.928 3.175 0 5.894 1.862 5.894 6.85v4.685c0 5.233-.152 5.687 3.116 5.84v.855h-9.463m26.978-8.61c0 4.684-1.963 7.702-5.64 7.702-2.363 0-4.983-1.354-4.983-3.12v-8.91c0-1.51 2.165-3.022 4.586-3.022 3.72 0 6.037 2.77 6.037 7.35m3.626-.454c0-5.233-3.374-9.164-8.05-9.164-2.62 0-4.736 1.212-6.197 2.922v-2.67h-6.593v.86c2.77.1 3.118.25 3.118 6.145V30.88c0 6.4.154 6.903-2.97 7.054v.857h9.614v-.855c-3.423-.1-3.17-.652-3.17-7.35v-2.47c1.36 1.358 3.476 1.917 5.388 1.917 5.434 0 8.86-4.08 8.86-9.52m12.637 4.788c0 1.505-2.014 2.763-3.625 2.763-1.516 0-2.77-.96-2.77-3.02 0-3.674 3.827-3.273 6.395-4.684v4.94m7.448 4.277v-.86h-1.056c-2.516 0-2.815-.855-2.815-4.433v-6.037c0-1.16-.104-2.216-.354-3.073-.853-2.82-3.17-3.83-6.343-3.83-1.967 0-4.832.71-6.396 2.07.103.852.856 2.514 1.36 3.022l.453-.1c.803-1.966 2.164-3.378 4.328-3.378 2.365 0 3.373 1.66 3.373 3.623v2.07c0 1.36-6.038 1.61-8.506 3.673-.854.752-1.465 1.712-1.465 3.02 0 2.818 1.97 4.683 4.937 4.683 1.86 0 3.474-.604 5.134-2.47.254 1.31 1.36 2.022 3.125 2.022l4.224-.002z"/><path fill="#163051" d="M335.772 29.575v-.855c2.564-.153 2.768-.202 2.768-6.196v-3.622c0-4.335-1.766-5.288-3.98-5.288-2.716 0-4.98 2.06-4.98 3.728v4.885c0 6.34.1 6.29 2.92 6.493v.855h-9.62v-.855c3.17-.153 3.228-.153 3.228-6.547V17.74c0-5.034-.354-5.183-3.272-5.284v-.858h6.748v3.227c1.86-2.37 4.278-3.48 6.59-3.48 2.873 0 5.836 1.715 5.836 7.154v4.022c0 5.992 0 6.043 3.178 6.194v.855l-9.416.004"/><path fill="#163051" d="M360.08 15.983l-3.575 10.167c-2.364 6.697-3.672 11.13-10.377 13.85-.498-.458-1.46-1.97-1.71-2.82 5.087-1.16 7.606-3.373 9.218-7.503l-4.68-10.423c-2.772-6.144-2.977-6.447-5.04-6.548v-.852h8.41v.852c-1.313.152-1.71.557-1.71 1.262 0 .754.352 1.61 1.256 3.776l3.375 7.906 3.475-10.224c.605-1.763-.254-2.62-1.812-2.722v-.852h6.496v.852c-1.264.002-2.523.96-3.325 3.28"/><path fill="none" stroke="#163051" stroke-width="2" stroke-miterlimit="10" d="M376 0v38.79"/><text transform="translate(387.758 30.152)" fill="#163051" font-family="'HelveticaNeue-Light'" font-size="35.849">Digital Labs</text></svg>