<svg xmlns="http://www.w3.org/2000/svg" xmlns:xlink="http://www.w3.org/1999/xlink" width="583.434" height="40" viewBox="0 0 583.434 40"><defs><path id="a" d="M.06.04h363.347V40H.06z"/></defs><clipPath id="b"><use xlink:href="#a" overflow="visible"/></clipPath><path clip-path="url(#b)" fill="#163051" d="M24.117 29.575v-.855c2.165-.25 2.973-1.157 2.82-4.081l-.855-18.877-9.059 23.613h-1.161L6.598 5.762l-.807 17.722c-.151 3.727.65 4.729 3.473 5.233v.855H0v-.852c2.62-.301 3.674-1.712 3.877-5.487l.905-17.626c.154-3.323-2.058-3.726-3.574-4.026V.723h7.603l8.712 22.354 8.506-22.2h7.205v.907c-2.269.198-3.374 1.309-3.278 3.924l.855 18.078c.154 3.472 1.158 4.684 3.728 4.934v.855H24.117"/><path fill="#163051" d="M44.205 30.078c-6.193 0-8.558-4.33-8.558-8.559 0-5.338 4.024-10.176 9.413-10.176 2.215 0 4.13.557 5.389 1.568-.053 1.052-.604 2.466-1.161 3.167l-.348.053c-1.463-1.915-3.476-2.615-5.241-2.615-1.206 0-2.415.296-3.27 1.15-.908.908-1.406 2.423-1.406 4.485 0 4.432 1.862 8.661 6.844 8.661 1.762 0 3.624-.5 5.286-1.508l.404.856c-1.712 1.858-4.785 2.918-7.352 2.918m28.089-.503c-3.978-4.482-7.652-9.115-11.077-13.341l-1.36 1.507v1.612c0 8.658 0 8.915 3.277 9.367v.855H52.807v-.855c2.973-.25 3.276-.757 3.276-8.812V9.937c0-7.452-.151-8.103-3.276-8.356V.723h10.327v.858c-2.923.401-3.277.857-3.277 8.259v5.433l7.602-8.407c1.866-2.012 2.016-3.07 2.016-3.674 0-.908-.507-1.358-1.763-1.611V.723h9.665v.858c-2.819.103-4.428 1.765-7.452 5.088l-6.19 6.849c1.913 2.468 5.186 6.39 7.145 8.708 5.089 5.888 6.706 6.34 8.311 6.492v.855l-6.897.002"/><path fill="#163051" d="M83.87 6.515c-1.313 0-2.262-1.007-2.262-2.315 0-1.311.949-2.319 2.262-2.319 1.312 0 2.317 1.008 2.317 2.319 0 1.308-1.005 2.315-2.317 2.315m-4.778 23.06v-.855c3.17-.149 3.22-.149 3.22-6.547v-4.432c0-5.032-.354-5.184-3.273-5.285v-.858h6.745v10.626c0 6.346.099 6.291 2.919 6.493v.855l-9.611.003zm23.91 0v-.855c2.57-.153 2.769-.202 2.769-6.196v-3.622c0-4.335-1.761-5.288-3.975-5.288-2.719 0-4.99 2.061-4.99 3.728v4.885c0 6.34.106 6.291 2.925 6.493v.855h-9.617v-.855c3.168-.153 3.224-.153 3.224-6.547v-4.432c0-5.035-.357-5.184-3.275-5.285v-.858h6.743v3.227c1.865-2.369 4.281-3.48 6.603-3.48 2.866 0 5.84 1.715 5.84 7.154v4.024c0 5.992 0 6.043 3.169 6.194v.855l-9.416.003m17.365.454c-2.367 0-5.236-.604-5.94-1.764-.254-.401-.453-2.818-.453-4.132h1.054c.708 3.226 2.873 4.586 5.44 4.586 2.613 0 4.18-1.011 4.18-2.668 0-4.938-10.324-3.726-10.324-9.771 0-2.766 2.166-5.083 5.893-5.083 2.516 0 5.085.705 5.286.908.203.197.504 1.863.504 4.478h-.81c-.301-1.06-1.807-4.177-5.181-4.177-1.664 0-3.023.751-3.023 2.263 0 4.285 10.268 3.273 10.268 9.921 0 2.972-2.613 5.439-6.894 5.439m22.656-12.132h-9.263c.301-3.328 1.811-5.189 4.681-5.189 2.82 0 4.529 1.861 4.582 5.189m3.274 9.259l-.403-.854c-1.659 1.009-3.525 1.513-5.29 1.513-4.982 0-7.047-4.479-6.895-8.56h12.588c.204-4.132-1.965-8.057-7.151-8.057-5.233 0-8.76 4.181-8.76 9.969 0 4.53 2.316 8.913 8.562 8.913 2.563 0 5.639-1.062 7.349-2.924m17.011-11.173l-3.579 10.167c-2.364 6.697-3.672 11.129-10.376 13.85-.496-.458-1.455-1.969-1.713-2.82 5.089-1.16 7.611-3.373 9.221-7.503l-4.683-10.423c-2.77-6.144-2.972-6.447-5.038-6.548v-.852h8.406v.852c-1.305.152-1.709.557-1.709 1.262 0 .754.353 1.611 1.259 3.776l3.376 7.906 3.47-10.224c.605-1.763-.25-2.621-1.811-2.722v-.852h6.497v.852c-1.259.002-2.519.961-3.32 3.279"/><defs><path id="c" d="M.06.04h363.347V40H.06z"/></defs><clipPath id="d"><use xlink:href="#c" overflow="visible"/></clipPath><path clip-path="url(#d)" fill="#163051" d="M187.371 26.001c-1.511 1.161-4.079 1.513-6.137 1.513-5.293 0-9.471-3.728-9.471-8.717 0-3.122 1.358-5.08 3.421-5.636 2.522 4.48 7.254 9.213 12.187 12.84m11.686 3.574v-.858c-2.019-.199-5.042-1.863-8.263-4.228 1.158-1.909 1.409-4.682 1.712-6.748.253-1.758 1.56-1.709 2.416-1.811v-.801h-8.155v.801c1.918.251 3.78.504 3.78 3.476 0 1.556-.259 3.117-.964 4.179-7.145-5.59-13.741-13.345-13.741-17.222 0-1.912 1.158-2.82 3.019-2.82 2.317 0 4.532 1.564 5.59 4.585h.806l-.103-5.439h-.808c-.05.354-.396.604-.601.604-1.004 0-2.413-1.108-4.885-1.108-2.713 0-5.538 1.715-5.538 5.432 0 1.417.456 2.724 1.212 4.235-3.726 1.161-5.691 4.382-5.691 8.056 0 6.695 5.086 10.32 10.824 10.32 3.577 0 6.394-1.106 9.017-3.319 1.604 1.159 3.215 2.261 4.176 2.666h6.197z"/><defs><path id="e" d="M.06.04h363.347V40H.06z"/></defs><clipPath id="f"><use xlink:href="#e" overflow="visible"/></clipPath><path clip-path="url(#f)" fill="#163051" d="M213.345 30.281c-8.349 0-13.641-5.539-13.641-14.352 0-9.211 5.745-15.911 14.346-15.911 4.283 0 5.896 1.209 7.607 1.209.758 0 1.256-.301 1.562-.905h.808l.301 8.609h-.858c-1.411-4.982-4.283-7.501-9.263-7.501-6.447 0-10.369 4.531-10.369 12.637 0 8.408 4.023 14.046 10.771 14.046 3.779 0 7.45-1.662 9.166-3.978l.804.905c-1.566 2.571-5.794 5.241-11.234 5.241"/><path fill="#163051" d="M242.292 21.77c0 4.184-1.863 6.75-5.64 6.75-3.275 0-6.342-3.021-6.342-9.112 0-4.335 2.061-6.7 5.537-6.7 3.224-.002 6.445 3.122 6.445 9.062m3.571-1.159c0-3.474-1.408-6.396-3.977-8.003-1.509-.957-3.42-1.41-5.535-1.41-5.643 0-9.62 4.128-9.62 9.413 0 3.524 1.415 6.443 3.978 8.056 1.512.961 3.475 1.364 5.589 1.364 5.589 0 9.565-4.031 9.565-9.42m26.634 8.964v-.855c2.619-.202 2.667-.452 2.667-5.892V18.7c0-3.728-1.456-5.086-3.727-5.086-2.669 0-4.98 2.012-4.98 3.827v5.083c0 5.692-.054 5.946 2.916 6.196v.855h-8.96v-.855c2.515-.153 2.67-.452 2.67-6.393V18.7c0-3.574-1.162-5.086-3.88-5.086-2.518 0-4.881 2.012-4.881 3.874v5.241c0 5.741.251 5.741 2.918 5.991v.855h-9.515v-.855c3.023-.053 3.12-.053 3.12-5.84v-5.139c0-5.035-.35-5.184-3.273-5.285v-.858h6.75v3.227c1.405-1.915 3.826-3.48 6.292-3.48 3.021 0 4.782 1.462 5.487 3.928 1.659-2.311 3.981-3.928 6.847-3.928 3.176 0 5.895 1.862 5.895 6.851v4.684c0 5.233-.152 5.687 3.116 5.84v.855h-9.462m26.978-8.611c0 4.685-1.963 7.703-5.641 7.703-2.362 0-4.982-1.354-4.982-3.121v-8.91c0-1.509 2.165-3.021 4.586-3.021 3.721-.001 6.037 2.771 6.037 7.349m3.626-.453c0-5.235-3.376-9.166-8.052-9.166-2.62 0-4.736 1.212-6.197 2.922v-2.669h-6.593v.858c2.77.101 3.119.25 3.119 6.146V30.88c0 6.399.154 6.903-2.971 7.054v.857h9.615v-.857c-3.423-.101-3.17-.652-3.17-7.349v-2.472c1.36 1.359 3.476 1.918 5.388 1.918 5.434 0 8.861-4.08 8.861-9.52m12.636 4.788c0 1.506-2.014 2.764-3.625 2.764-1.516 0-2.771-.959-2.771-3.02 0-3.674 3.828-3.273 6.396-4.684v4.94m7.448 4.279v-.861h-1.056c-2.514 0-2.813-.854-2.813-4.432v-6.037c0-1.161-.104-2.216-.354-3.073-.854-2.82-3.172-3.83-6.344-3.83-1.967 0-4.832.71-6.396 2.069.102.853.855 2.515 1.359 3.023l.453-.101c.803-1.965 2.164-3.377 4.328-3.377 2.364 0 3.372 1.662 3.372 3.624v2.069c0 1.361-6.038 1.609-8.506 3.673-.854.752-1.465 1.712-1.465 3.021 0 2.817 1.969 4.682 4.937 4.682 1.862 0 3.475-.604 5.135-2.469.254 1.31 1.361 2.021 3.125 2.021l4.225-.002z"/><path fill="#163051" d="M335.772 29.575v-.855c2.564-.153 2.768-.202 2.768-6.196v-3.622c0-4.335-1.766-5.288-3.979-5.288-2.717 0-4.98 2.061-4.98 3.728v4.885c0 6.34.098 6.291 2.918 6.493v.855h-9.619v-.855c3.17-.153 3.228-.153 3.228-6.547v-4.432c0-5.035-.354-5.184-3.272-5.285v-.858h6.748v3.227c1.86-2.369 4.278-3.48 6.59-3.48 2.873 0 5.836 1.715 5.836 7.154v4.024c0 5.992 0 6.043 3.178 6.194v.855l-9.416.003"/><path fill="#163051" d="M360.081 15.983l-3.576 10.167c-2.364 6.697-3.672 11.129-10.377 13.85-.498-.458-1.459-1.969-1.709-2.82 5.086-1.16 7.605-3.373 9.217-7.503l-4.68-10.423c-2.772-6.144-2.977-6.447-5.039-6.548v-.852h8.408v.852c-1.312.152-1.709.557-1.709 1.262 0 .754.352 1.611 1.256 3.776l3.375 7.906 3.475-10.224c.605-1.763-.254-2.621-1.812-2.722v-.852h6.496v.852c-1.264.002-2.523.961-3.325 3.279"/><path fill="none" stroke="#163051" stroke-width="2" stroke-miterlimit="10" d="M376 0v38.791"/><text transform="translate(387.758 30.152)" fill="#163051" font-family="'HelveticaNeue-Light'" font-size="35.849">Digital Labs</text></svg>